<svg width="292" height="292" viewBox="0 0 292 292" fill="none" xmlns="http://www.w3.org/2000/svg">
<rect width="292" height="292" fill="#060709"/>
<g transform="translate(146, 146) scale(1.356) translate(-132, -132)">
<path d="M115.486 72.1162C94.6923 78.3436 78.3108 94.7183 72.0652 115.413H94.2461C96.1687 115.413 98.0126 114.65 99.3725 113.291L113.36 99.3114C114.721 97.9513 115.486 96.1061 115.486 94.1821V72.1162ZM126.298 99.0613C126.209 100.865 125.454 102.575 124.175 103.853L103.818 124.199L103.559 124.445C102.238 125.641 100.52 126.307 98.7347 126.307H66.8957L66.6955 126.304C62.5139 126.19 59.2655 122.501 60.1445 118.355C66.3195 89.2339 89.2694 66.3037 118.413 60.1414C122.596 59.2568 126.307 62.6451 126.307 66.9483V98.6996L126.298 99.0613Z" fill="white"/>
<path d="M115.486 191.884C94.6923 185.656 78.3108 169.282 72.0652 148.587H94.2461C96.1687 148.587 98.0126 149.35 99.3725 150.709L113.36 164.689C114.721 166.049 115.486 167.894 115.486 169.818V191.884ZM126.298 164.939C126.209 163.135 125.454 161.425 124.175 160.147L103.818 139.801L103.559 139.555C102.238 138.359 100.52 137.693 98.7347 137.693H66.8957L66.6955 137.696C62.5139 137.81 59.2655 141.499 60.1445 145.645C66.3195 174.766 89.2694 197.696 118.413 203.859C122.596 204.743 126.307 201.355 126.307 197.052V165.3L126.298 164.939Z" fill="white"/>
<path d="M115.486 191.884C94.6923 185.656 78.3108 169.282 72.0652 148.587H94.2461C96.1687 148.587 98.0126 149.35 99.3725 150.709L113.36 164.689C114.721 166.049 115.486 167.894 115.486 169.818V191.884ZM126.298 164.939C126.209 163.135 125.454 161.425 124.175 160.147L103.818 139.801L103.559 139.555C102.238 138.359 100.52 137.693 98.7347 137.693H66.8957L66.6955 137.696C62.5139 137.81 59.2655 141.499 60.1445 145.645C66.3195 174.766 89.2694 197.696 118.413 203.859C122.596 204.743 126.307 201.355 126.307 197.052V165.3L126.298 164.939Z" fill="white"/>
<path d="M191.937 115.408C185.682 94.7086 169.298 78.3362 148.509 72.1188L148.509 94.1707C148.509 96.0936 149.273 97.9378 150.632 99.2978L164.613 113.283C165.974 114.644 167.818 115.408 169.742 115.408L191.937 115.408ZM165.252 126.307C163.349 126.307 161.522 125.549 160.172 124.198L139.824 103.843C138.545 102.564 137.791 100.853 137.702 99.0483L137.693 98.6864L137.693 66.9508C137.693 62.6472 141.399 59.2585 145.58 60.1406C174.715 66.2892 197.666 89.2184 203.855 118.348C204.75 122.562 201.384 126.307 197.107 126.307L165.252 126.307Z" fill="white"/>
<path d="M148.515 191.884C169.308 185.656 185.689 169.281 191.934 148.587L169.754 148.587C167.831 148.587 165.987 149.35 164.627 150.709L150.641 164.687C149.28 166.047 148.515 167.892 148.515 169.816L148.515 191.884ZM137.702 164.937C137.791 163.133 138.546 161.423 139.825 160.145L160.182 139.801L160.44 139.555C161.674 138.439 163.252 137.784 164.909 137.702L165.265 137.693L197.105 137.693L197.304 137.696C201.486 137.81 204.734 141.499 203.856 145.645C197.681 174.765 174.731 197.695 145.588 203.859C141.404 204.743 137.693 201.356 137.693 197.052L137.693 165.299L137.702 164.937Z" fill="white"/>
<path d="M148.515 191.884C169.308 185.656 185.689 169.281 191.934 148.587L169.754 148.587C167.831 148.587 165.987 149.35 164.627 150.709L150.641 164.687C149.28 166.047 148.515 167.892 148.515 169.816L148.515 191.884ZM137.702 164.937C137.791 163.133 138.546 161.423 139.825 160.145L160.182 139.801L160.44 139.555C161.674 138.439 163.252 137.784 164.909 137.702L165.265 137.693L197.105 137.693L197.304 137.696C201.486 137.81 204.734 141.499 203.856 145.645C197.681 174.765 174.731 197.695 145.588 203.859C141.404 204.743 137.693 201.356 137.693 197.052L137.693 165.299L137.702 164.937Z" fill="white"/>
</g>
</svg>
